HIERARCHY
ROOT Hips
{
	OFFSET 0.000000 0.000000 0.000000
	CHANNELS 6 Xposition Yposition Zposition Zrotation Yrotation Xrotation 
	JOINT LeftUpLeg_virtual
	{
		OFFSET 0.000000 0.000000 0.000000
		CHANNELS 3 Zrotation Yrotation Xrotation
		JOINT LeftUpLeg
		{
			OFFSET 8.479694 -4.795517 -0.379053
			CHANNELS 3 Zrotation Yrotation Xrotation
			JOINT LeftLeg
			{
				OFFSET 0.485052 -32.551468 0.112863
				CHANNELS 3 Zrotation Yrotation Xrotation
				JOINT LeftFoot
				{
					OFFSET 0.438033 -32.635670 -3.012641
					CHANNELS 3 Zrotation Yrotation Xrotation
					JOINT LeftToeBase
					{
						OFFSET 0.970169 -13.225353 11.864223
						CHANNELS 3 Zrotation Yrotation Xrotation
						End Site
						{
							OFFSET 0.000000 0.000000 0.000000
						}
					}
				}
			}
		}
	}
	JOINT RightUpLeg_virtual
	{
		OFFSET 0.000000 0.000000 0.000000
		CHANNELS 3 Zrotation Yrotation Xrotation
		JOINT RightUpLeg
		{
			OFFSET -8.479694 -4.795517 -0.379053
			CHANNELS 3 Zrotation Yrotation Xrotation
			JOINT RightLeg
			{
				OFFSET -0.484100 -32.551483 0.112903
				CHANNELS 3 Zrotation Yrotation Xrotation
				JOINT RightFoot
				{
					OFFSET -0.438985 -32.635651 -3.012681
					CHANNELS 3 Zrotation Yrotation Xrotation
					JOINT RightToeBase
					{
						OFFSET -0.970169 -13.225354 11.864223
						CHANNELS 3 Zrotation Yrotation Xrotation
						End Site
						{
							OFFSET 0.000000 0.000000 0.000000
						}
					}
				}
			}
		}
	}
	JOINT Spine_virtual
	{
		OFFSET 0.000000 0.000000 0.000000
		CHANNELS 3 Zrotation Yrotation Xrotation
		JOINT Spine
		{
			OFFSET 0.000000 7.722015 1.166203
			CHANNELS 3 Zrotation Yrotation Xrotation
			JOINT Spine1
			{
				OFFSET 0.000000 12.024086 0.248766
				CHANNELS 3 Zrotation Yrotation Xrotation
				JOINT Spine2
				{
					OFFSET -0.000000 11.503036 -0.491240
					CHANNELS 3 Zrotation Yrotation Xrotation
					JOINT Neck_virtual
					{
						OFFSET 0.000000 0.000000 0.000000
						CHANNELS 3 Zrotation Yrotation Xrotation
						JOINT Neck
						{
							OFFSET 0.000000 18.430687 -3.123054
							CHANNELS 3 Zrotation Yrotation Xrotation
							JOINT Head
							{
								OFFSET -0.000000 9.051071 1.034021
								CHANNELS 3 Zrotation Yrotation Xrotation
								End Site
								{
									OFFSET 0.000000 0.000000 0.000000
								}
							}
						}
					}
					JOINT LeftShoulder_virtual
					{
						OFFSET 0.000000 0.000000 0.000000
						CHANNELS 3 Zrotation Yrotation Xrotation
						JOINT LeftShoulder
						{
							OFFSET 6.197824 13.665230 -4.064723
							CHANNELS 3 Zrotation Yrotation Xrotation
							JOINT LeftArm
							{
								OFFSET 7.778132 -0.187073 -1.709282
								CHANNELS 3 Zrotation Yrotation Xrotation
								JOINT LeftForeArm
								{
									OFFSET 21.954697 0.000000 -2.041093
									CHANNELS 3 Zrotation Yrotation Xrotation
									JOINT LeftHand
									{
										OFFSET 22.992908 0.000000 -0.870901
										CHANNELS 3 Zrotation Yrotation Xrotation
										End Site
										{
											OFFSET 0.000000 0.000000 0.000000
										}
									}
								}
							}
						}
					}
					JOINT RightShoulder_virtual
					{
						OFFSET 0.000000 0.000000 0.000000
						CHANNELS 3 Zrotation Yrotation Xrotation
						JOINT RightShoulder
						{
							OFFSET -6.197824 13.665230 -4.064723
							CHANNELS 3 Zrotation Yrotation Xrotation
							JOINT RightArm
							{
								OFFSET -7.778132 -0.187073 -1.709282
								CHANNELS 3 Zrotation Yrotation Xrotation
								JOINT RightForeArm
								{
									OFFSET -21.954697 0.000000 -2.041093
									CHANNELS 3 Zrotation Yrotation Xrotation
									JOINT RightHand
									{
										OFFSET -22.992908 0.000000 -0.870901
										CHANNELS 3 Zrotation Yrotation Xrotation
										End Site
										{
											OFFSET 0.000000 0.000000 0.000000
										}
									}
								}
							}
						}
					}
				}
			}
		}
	}
}
MOTION
Frames: 7
Frame Time: 0.033333
-37.914024 60.762501 20.305515 -179.966004 8.281436 -179.926403 5.121938 -6.759772 -5.284561 -15.020482 -0.551768 -65.017384 15.428144 -3.847862 81.720276 -8.001526 -13.760778 -6.883334 0.000000 0.000000 0.000000 2.439283 -0.775045 -3.623863 2.478617 -1.225080 -66.854554 -5.265832 -4.324537 75.343981 -3.742292 10.402394 5.560509 0.000000 0.000000 0.000000 5.950334 0.673392 -8.840580 -0.562081 -2.208087 3.784524 -0.803234 -0.289510 12.054628 -0.015847 0.001803 0.022944 -0.771537 -0.275788 12.302667 4.911847 -4.121608 -7.995367 0.000000 0.000000 0.000000 1.467401 0.160428 8.988398 -14.987361 -8.956421 5.297732 -52.279559 -43.014110 27.863560 0.961858 -50.907613 7.439656 0.000000 0.000000 0.000000 -3.242415 1.881426 7.772180 19.345727 17.334523 7.137244 69.246261 37.078153 14.167484 -167.660927 63.553968 -167.056933 0.000000 0.000000 0.000000 
-38.136860 60.801594 20.369690 179.911677 8.368255 -179.931430 4.825357 -7.328953 -5.185957 -16.264895 -0.646075 -64.458790 18.039185 -2.768377 81.152230 -4.310898 -10.232884 -9.503661 0.000000 0.000000 0.000000 2.456199 -1.226758 -3.814759 2.505016 -1.803961 -66.706161 -5.271806 -4.479812 75.168609 -3.421683 10.613078 5.866972 0.000000 0.000000 0.000000 5.851911 0.497092 -8.884590 -0.527384 -2.270675 3.560936 -0.828366 -0.117307 12.190609 -0.000964 0.055106 -0.007416 -0.774682 -0.213753 12.496455 5.135878 -4.064559 -7.822322 0.000000 0.000000 0.000000 1.442474 0.192788 9.250224 -15.212312 -9.312992 5.455252 -51.907245 -43.243908 27.200603 0.938559 -50.453822 7.661951 0.000000 0.000000 0.000000 -3.278377 1.898174 7.935352 19.281264 17.488928 7.040739 69.468543 37.442407 14.128526 -167.028260 63.381724 -166.412696 0.000000 0.000000 0.000000 
-38.329613 60.830353 20.443352 -179.975321 8.290584 -179.926621 4.582582 -7.602654 -5.089434 -17.090281 -0.945742 -63.984276 20.290522 -2.485415 80.488868 -2.637684 -8.951654 -11.232128 0.000000 0.000000 0.000000 2.542309 -1.497318 -3.878124 2.565624 -2.257134 -66.655256 -5.318533 -4.636545 74.966756 -3.196003 10.719584 6.098288 0.000000 0.000000 0.000000 5.881515 0.331054 -8.786389 -0.419221 -2.216674 3.315763 -0.879715 -0.138800 12.345026 0.007513 0.019609 0.027327 -0.885723 -0.218836 12.577157 5.283501 -4.125803 -7.618393 0.000000 0.000000 0.000000 1.355303 0.328039 9.363873 -15.325806 -9.576661 5.557072 -51.509865 -43.467040 26.479385 0.920923 -50.050930 7.822990 0.000000 0.000000 0.000000 -3.380751 1.991738 8.047524 19.310459 17.688035 6.961011 69.768484 37.786611 14.198998 -166.516269 63.248166 -165.918382 0.000000 0.000000 0.000000 
-38.436398 60.840946 20.489328 179.971305 8.167018 -179.869658 4.585971 -7.363945 -5.220686 -17.019286 -1.742195 -63.663920 20.029868 -2.382723 80.229287 -2.255030 -8.868507 -11.297485 0.000000 0.000000 0.000000 2.450921 -1.392599 -3.922530 2.498342 -2.485690 -66.666225 -5.365259 -4.624278 74.911944 -3.110890 10.808842 6.152465 0.000000 0.000000 0.000000 5.718377 0.552062 -8.737991 -0.398592 -2.280261 3.030467 -0.972606 -0.096359 12.478573 -0.006438 0.006953 0.025911 -0.941045 -0.128883 12.708498 5.415578 -4.209559 -7.484170 0.000000 0.000000 0.000000 1.306114 0.334822 9.528891 -15.335617 -9.793320 5.718811 -50.936276 -43.540684 25.741851 0.878979 -49.782558 8.007937 0.000000 0.000000 0.000000 -3.461927 2.051420 8.166182 19.388453 17.756214 6.866725 70.134268 37.997411 14.396840 -166.138997 62.991775 -165.556341 0.000000 0.000000 0.000000 
-38.464943 60.831059 20.503525 179.997218 8.038582 -179.928534 4.675882 -6.981060 -5.379995 -17.014737 -2.375431 -63.229827 18.507028 -2.355328 80.173471 -3.798673 -10.800850 -9.196796 0.000000 0.000000 0.000000 2.345321 -1.022487 -3.969164 2.460770 -2.634767 -66.567775 -5.374964 -4.536379 74.963730 -3.173549 10.925507 6.023953 0.000000 0.000000 0.000000 5.513781 0.898157 -8.728102 -0.356031 -2.333782 2.896576 -1.032611 -0.142695 12.634230 0.007489 -0.018356 0.004555 -1.057518 -0.177468 12.865635 5.513209 -4.133715 -7.292086 0.000000 0.000000 0.000000 1.210731 0.402797 9.685206 -15.167330 -9.956865 5.685381 -50.417028 -43.383787 24.930303 0.612254 -49.706203 8.385077 0.000000 0.000000 0.000000 -3.564227 2.004737 8.347798 19.526384 17.951807 6.798663 70.497149 38.055430 14.644498 -165.935785 62.746516 -165.393236 0.000000 0.000000 0.000000 
-38.431084 60.805691 20.486595 -179.987916 7.907722 -179.953013 4.681352 -6.687826 -5.648179 -16.979598 -2.915646 -62.811547 17.795122 -2.496661 80.306154 -4.683979 -12.173945 -6.563036 0.000000 0.000000 0.000000 2.280205 -0.877555 -4.121960 2.431535 -2.610546 -66.406985 -5.462705 -4.513596 75.099842 -3.169779 10.900883 5.872628 0.000000 0.000000 0.000000 5.274498 1.088230 -8.914633 -0.353326 -2.524410 2.857701 -1.083594 -0.050279 12.807211 -0.010824 0.014077 0.036488 -1.086055 0.006592 12.947908 5.629496 -4.247112 -7.145859 0.000000 0.000000 0.000000 1.191217 0.412254 9.710900 -14.981791 -10.055866 5.808560 -49.904863 -43.054412 24.349109 0.736659 -49.762033 8.327702 0.000000 0.000000 0.000000 -3.610491 2.100669 8.394283 19.763651 18.018046 6.821464 70.737148 38.051168 14.909903 -165.710471 62.498225 -165.214380 0.000000 0.000000 0.000000 
-38.380787 60.774132 20.465508 179.999950 7.930381 179.962070 4.775457 -6.685973 -5.980367 -16.978191 -3.255247 -62.415396 17.600784 -2.683564 80.710740 -4.608503 -12.988458 -5.300664 0.000000 0.000000 0.000000 2.225099 -0.756962 -4.328281 2.490799 -2.702512 -66.137582 -5.502668 -4.491555 75.286853 -3.265519 10.995577 5.764061 0.000000 0.000000 0.000000 5.029359 1.191132 -9.120451 -0.381563 -2.670184 2.950347 -1.135826 -0.046735 12.977282 0.005636 -0.013104 0.018996 -1.178870 -0.076251 13.083933 5.676497 -4.152714 -6.979529 0.000000 0.000000 0.000000 1.138306 0.545699 9.809334 -14.895080 -10.136782 5.880916 -49.452093 -42.714326 23.852393 0.780358 -49.922044 8.352024 0.000000 0.000000 0.000000 -3.676375 2.214226 8.501552 19.805428 18.104827 6.775140 70.654783 37.926258 14.953934 -165.443451 62.370815 -165.042123 0.000000 0.000000 0.000000 
